<svg version="1.2" xmlns="http://www.w3.org/2000/svg" viewBox="0 0 400 400" width="400" height="400">
	<title>logo hackatrack</title>
	<style>
		.s0 { opacity: .14;fill: #010101 } 
		.s1 { opacity: .24;fill: #010101 } 
		.s2 { opacity: .34;fill: #010101 } 
		.s3 { opacity: .45;fill: #010101 } 
		.s4 { opacity: .56;fill: #010101 } 
		.s5 { opacity: .99;fill: #010101 } 
		.s6 { opacity: .68;fill: #010101 } 
		.s7 { opacity: 1;fill: #040300 } 
		.s8 { opacity: 1;fill: #32d000 } 
		.s9 { opacity: 1;fill: #2eb400 } 
		.s10 { opacity: 1;fill: #137600 } 
		.s11 { opacity: 1;fill: #36ec00 } 
		.s12 { opacity: .5;fill: none;stroke: #000000;stroke-miterlimit:100 } 
	</style>
	<g id="614480">
		<path id="Path 0" class="s0" d="m236 70v-2h8v4zm90 155v-8h2v8zm0 17v-6h2v6zm-254 58v-11l3 11z"/>
		<path id="Path 1" class="s1" d="m326 236v-11h2v11z"/>
		<path id="Path 2" class="s2" d="m214 70v-2h3zm-142 205v-2h1z"/>
		<path id="Path 3" class="s3" d="m236 70l-5-2h5z"/>
		<path id="Path 4" class="s4" d="m253 115l3-15 2 16zm-28 101l6-5v6z"/>
		<path id="Path 5" class="s5" d="m214 70l3-2h14l5 2 8 2 9 8 3 20-3 15-14-6-5-27h-12l-2 20-13-2zm68 59l-7 1-7-11 19-9h11l19 22 9 85v8 11 6l-10 27-22 9v-17l9-6 5-17-3-64v-3l-2-28-10-15zm-209 144l10-23 29-17 2-38 33 12 5 28 13-1 2-20 29 6h18l11-4 6 1v11l-1 5-1 26-1 12-1 31-1 4-1 15h-25l-37-13-23 20-27 3-24-11-14-20-3-11v-14z"/>
		<path id="Path 6" class="s3" d="m240 254l2-12v12zm42 16l1-11 1 11z"/>
		<path id="Path 7" fill-rule="evenodd" class="s4" d="m190 98l-8 2 2-6zm50 177v-21h2zm42 7v-12h2z"/>
		<path id="Path 8" class="s6" d="m190 88l5-3-1 4z"/>
		<path id="Path 9" class="s5" d="m184 94l6-6 4 1-4 9zm11 112l-25-6 10-22-3-6-13-1-13 22-30-12v-13l17-33 18-16 35-11 42 9 29 15-2 4-21 15-12 43-14 12zm47 36l4-69 8-17 10-8 8 2 9 44 1 13 1 52-1 11v12l-18 27-19 5h-6l1-39 2-21z"/>
		<path id="Path 10" class="s7" d="m121 287l-4-7 9 2z"/>
		<path id="Path 11" class="s8" d="m120 263h-9l9-5zm6 19l4-1h1l-1 8-8 3-1-5z"/>
		<path id="Path 12" class="s9" d="m109 304l-12-13v-14l5 1v10l11 13zm44-8l3-8 4 2-2 7z"/>
		<path id="Path 13" class="s10" d="m130 281v-3l1 3z"/>
		<path id="Path 14" class="s11" d="m156 288l-2-18-11-15-16-7-21 1 22-7 16 7 18 27-2 14zm-36-25v-5l22 10 4 20-15 18-22-2 4-3h17l11-14-3-16zm38 34l-10 16-18 9-33-7-15-24 3-25 45 12v3l-4 1-9-2 4 7 1 5-20-14-5-1-5-4h-4v1l-1 8 12 28 23 7 7-1 13-5 11-15z"/>
		<path id="Stroke" fill-rule="evenodd" class="s12" d="m236 70v-2h8v4zm90 155v-8h2v8zm0 17v-6h2v6zm-254 58v-11l3 11zm254-64v-11h2v11zm-112-166v-2h3zm-142 205v-2h1zm164-205l-5-2h5zm17 45l3-15 2 16zm-28 101l6-5v6zm-11-146l3-2h14l5 2 8 2 9 8 3 20-3 15-14-6-5-27h-12l-2 20-13-2zm68 59l-7 1-7-11 19-9h11l19 22 9 85v8 11 6l-10 27-22 9v-17l9-6 5-17-3-64v-3l-2-28-10-15zm-209 144l10-23 29-17 2-38 33 12 5 28 13-1 2-20 29 6h18l11-4 6 1v11l-1 5-1 26-1 12-1 31-1 4-1 15h-25l-37-13-23 20-27 3-24-11-14-20-3-11v-14zm167-19l2-12v12zm42 16l1-11 1 11zm-92-172l-8 2 2-6zm50 177v-21h2zm42 7v-12h2zm-92-194l5-3-1 4zm-6 6l6-6 4 1-4 9zm11 112l-25-6 10-22-3-6-13-1-13 22-30-12v-13l17-33 18-16 35-11 42 9 29 15-2 4-21 15-12 43-14 12zm47 36l4-69 8-17 10-8 8 2 9 44 1 13 1 52-1 11v12l-18 27-19 5h-6l1-39 2-21zm-121 45l-4-7 9 2zm-1-24h-9l9-5zm6 19l4-1h1l-1 8-8 3-1-5zm-17 22l-12-13v-14l5 1v10l11 13zm44-8l3-8 4 2-2 7zm-23-15v-3l1 3zm26 7l-2-18-11-15-16-7-21 1 22-7 16 7 18 27-2 14zm-36-25v-5l22 10 4 20-15 18-22-2 4-3h17l11-14-3-16zm38 34l-10 16-18 9-33-7-15-24 3-25 45 12v3l-4 1-9-2 4 7 1 5-20-14-5-1-5-4h-4v1l-1 8 12 28 23 7 7-1 13-5 11-15z"/>
	</g>
</svg>